<svg width="15" height="12" viewBox="0 0 15 12" fill="none" xmlns="http://www.w3.org/2000/svg">
<path d="M3.03889 4.34653L6.65059 7.98653C6.72959 8.06749 6.79232 8.16401 6.83515 8.27045C6.87797 8.37689 6.90003 8.49114 6.90003 8.60654C6.90003 8.72194 6.87797 8.83619 6.83515 8.94263C6.79232 9.04908 6.72959 9.14558 6.65059 9.22654L5.48832 10.4765C5.16173 10.8265 4.82553 10.6265 4.52776 10.2865L0.896842 6.72654C0.741927 6.56045 0.655273 6.33805 0.655273 6.10654C0.655273 5.87503 0.741927 5.65262 0.896842 5.48653L1.8574 4.37653C2.01274 4.21412 2.22227 4.12036 2.44236 4.11477C2.66245 4.10918 2.87614 4.19219 3.03889 4.34653Z" fill="#01C0B9"/>
<path d="M11.6956 0.707094L4.16311 8.54891C3.78798 8.93943 3.78798 9.57259 4.16311 9.96312L5.17514 11.0167C5.55027 11.4072 6.15846 11.4072 6.53358 11.0167L14.0661 3.1749C14.4412 2.78438 14.4412 2.15121 14.0661 1.76069L13.0541 0.707094C12.6789 0.31657 12.0708 0.31657 11.6956 0.707094Z" fill="#01C0B9"/>
</svg>
