<svg width="97" height="33" viewBox="0 0 97 33" fill="none" xmlns="http://www.w3.org/2000/svg">
<path d="M4.91287 28.8842H11.4634V32.6478H0V12.3356H4.91287V28.8842Z" fill="#00AFFA"/>
<path d="M29.4065 12.0195C31.3219 12.0195 33.0553 12.4696 34.6067 13.3699C36.1773 14.2509 37.4127 15.4863 38.3129 17.0761C39.2131 18.6466 39.6632 20.4279 39.6632 22.4199C39.6632 24.4118 39.2035 26.2027 38.2842 27.7924C37.3839 29.3822 36.1485 30.6271 34.578 31.5274C33.0265 32.4084 31.3027 32.8489 29.4065 32.8489C27.5103 32.8489 25.7769 32.4084 24.2063 31.5274C22.6549 30.6271 21.4195 29.3822 20.5001 27.7924C19.5999 26.2027 19.1498 24.4118 19.1498 22.4199C19.1498 20.4279 19.5999 18.6466 20.5001 17.0761C21.4195 15.4863 22.6549 14.2509 24.2063 13.3699C25.7769 12.4696 27.5103 12.0195 29.4065 12.0195ZM29.4065 16.5876C27.7976 16.5876 26.5143 17.1144 25.5567 18.1678C24.6181 19.2021 24.1489 20.6194 24.1489 22.4199C24.1489 24.2011 24.6181 25.6185 25.5567 26.6719C26.5143 27.7254 27.7976 28.2521 29.4065 28.2521C30.9963 28.2521 32.27 27.7254 33.2276 26.6719C34.1853 25.6185 34.6641 24.2011 34.6641 22.4199C34.6641 20.6386 34.1853 19.2212 33.2276 18.1678C32.2891 17.1144 31.0154 16.5876 29.4065 16.5876Z" fill="#00AFFA"/>
<path d="M57.9662 12.1345C60.5136 12.1345 62.6109 12.7569 64.2581 14.0019C65.9053 15.2469 66.93 16.9324 67.3322 19.0584H62.132C61.7873 18.3306 61.2606 17.756 60.5519 17.3346C59.8432 16.8941 58.9909 16.6738 57.9949 16.6738C56.4435 16.6738 55.1985 17.2005 54.26 18.254C53.3214 19.2883 52.8522 20.6961 52.8522 22.4773C52.8522 24.4118 53.3406 25.8962 54.3174 26.9305C55.3134 27.9648 56.7212 28.482 58.5408 28.482C59.7091 28.482 60.7338 28.1659 61.6149 27.5339C62.496 26.8826 63.1184 25.9633 63.4824 24.7758H57.2766V21.2419H67.5908V26.0973C67.2077 27.2849 66.5948 28.3862 65.7521 29.4013C64.9093 30.4165 63.8271 31.2401 62.5055 31.8721C61.2031 32.5042 59.7091 32.8202 58.0236 32.8202C55.9742 32.8202 54.1833 32.3893 52.6511 31.5274C51.1188 30.6463 49.9313 29.4205 49.0885 27.8499C48.2649 26.2793 47.8531 24.4885 47.8531 22.4773C47.8531 20.4662 48.2649 18.6754 49.0885 17.1048C49.9313 15.5342 51.1092 14.318 52.6223 13.456C54.1546 12.575 55.9359 12.1345 57.9662 12.1345Z" fill="#00AFFA"/>
<path d="M86.0275 12.0195C87.9429 12.0195 89.6763 12.4696 91.2277 13.3699C92.7983 14.2509 94.0337 15.4863 94.9339 17.0761C95.8341 18.6466 96.2842 20.4279 96.2842 22.4199C96.2842 24.4118 95.8245 26.2027 94.9052 27.7924C94.005 29.3822 92.7695 30.6271 91.199 31.5274C89.6475 32.4084 87.9237 32.8489 86.0275 32.8489C84.1313 32.8489 82.3979 32.4084 80.8273 31.5274C79.2759 30.6271 78.0405 29.3822 77.1211 27.7924C76.2209 26.2027 75.7708 24.4118 75.7708 22.4199C75.7708 20.4279 76.2209 18.6466 77.1211 17.0761C78.0405 15.4863 79.2759 14.2509 80.8273 13.3699C82.3979 12.4696 84.1313 12.0195 86.0275 12.0195ZM86.0275 16.5876C84.4186 16.5876 83.1353 17.1144 82.1777 18.1678C81.2391 19.2021 80.7699 20.6194 80.7699 22.4199C80.7699 24.2011 81.2391 25.6185 82.1777 26.6719C83.1353 27.7254 84.4186 28.2521 86.0275 28.2521C87.6173 28.2521 88.891 27.7254 89.8486 26.6719C90.8063 25.6185 91.2851 24.2011 91.2851 22.4199C91.2851 20.6386 90.8063 19.2212 89.8486 18.1678C88.9101 17.1144 87.6364 16.5876 86.0275 16.5876Z" fill="#00AFFA"/>
<path d="M38.7886 5.22368L38.7886 0L19.1998 -1.71539e-06L19.1998 5.22368L38.7886 5.22368Z" fill="#00AFFA"/>
</svg>
