<svg width="27" height="27" viewBox="0 0 27 27" fill="none" xmlns="http://www.w3.org/2000/svg">
<path d="M14.0347 9.71999C14.0347 8.82521 14.7599 8.09999 15.6547 8.09999C16.5494 8.09999 17.2747 8.82521 17.2747 9.71999V10.8C17.2747 9.90521 17.9999 9.17999 18.8947 9.17999C19.7894 9.17999 20.5147 9.90521 20.5147 10.8V12.42V11.8465C20.5147 10.9517 21.2399 10.2265 22.1347 10.2265C23.0294 10.2265 23.7547 10.9517 23.7547 11.8465V17.28C23.7547 21.7534 20.128 25.38 15.6547 25.38C13.418 25.38 11.393 24.4733 9.92688 23.0078L4.12999 15.708C3.61969 15.0654 3.67261 14.1426 4.25257 13.5621C4.88329 12.9314 5.90551 12.9314 6.53623 13.5621L8.81771 15.8436C9.54725 16.5731 10.7941 16.0564 10.7941 15.025V12.42V3.24C10.7941 2.34522 11.5194 1.62 12.4141 1.62C13.3089 1.62 14.0341 2.34522 14.0341 3.24V10.8" stroke="#F0F0F0" stroke-width="2" stroke-miterlimit="10" stroke-linecap="round" stroke-linejoin="round"/>
</svg>
