<svg width="27" height="28" viewBox="0 0 27 28" fill="none" xmlns="http://www.w3.org/2000/svg">
<g clip-path="url(#clip0_511_6024)">
<path d="M26.1334 13.0666V26.1333C26.1334 26.6283 25.9368 27.1031 25.5867 27.4532C25.2366 27.8033 24.7618 27.9999 24.2668 27.9999H7.46676C6.97169 27.9999 6.4969 27.8033 6.14683 27.4532C5.79676 27.1031 5.6001 26.6283 5.6001 26.1333V5.59994C5.6001 5.10487 5.79676 4.63008 6.14683 4.28001C6.4969 3.92994 6.97169 3.73328 7.46676 3.73328H20.5334" fill="#A3E3FF"/>
<path d="M26.1334 13.0666V26.1333C26.1334 26.6283 25.9368 27.1031 25.5867 27.4532C25.2366 27.8033 24.7618 27.9999 24.2668 27.9999H7.46676C6.97169 27.9999 6.4969 27.8033 6.14683 27.4532C5.79676 27.1031 5.6001 26.6283 5.6001 26.1333V5.59994C5.6001 5.10487 5.79676 4.63008 6.14683 4.28001C6.4969 3.92994 6.97169 3.73328 7.46676 3.73328H20.5334" stroke="white" stroke-width="2" stroke-linecap="round" stroke-linejoin="round"/>
<path d="M5.6 24.2667H1.86667C1.3716 24.2667 0.8968 24.07 0.546733 23.7199C0.196665 23.3699 0 22.8951 0 22.4V1.86667C0 1.3716 0.196665 0.896802 0.546733 0.546734C0.8968 0.196666 1.3716 0 1.86667 0H18.6667C19.1617 0 19.6365 0.196666 19.9866 0.546734C20.3367 0.896802 20.5333 1.3716 20.5333 1.86667V3.73333" fill="#A3E3FF"/>
<path d="M5.6 24.2667H1.86667C1.3716 24.2667 0.8968 24.07 0.546733 23.7199C0.196665 23.3699 0 22.8951 0 22.4V1.86667C0 1.3716 0.196665 0.896802 0.546733 0.546734C0.8968 0.196666 1.3716 0 1.86667 0H18.6667C19.1617 0 19.6365 0.196666 19.9866 0.546734C20.3367 0.896802 20.5333 1.3716 20.5333 1.86667V3.73333" stroke="white" stroke-width="2" stroke-linecap="round" stroke-linejoin="round"/>
<path d="M26.1332 9.33328H20.5332V3.73328L26.1332 9.33328Z" fill="#A3E3FF" stroke="white" stroke-width="2" stroke-linecap="round" stroke-linejoin="round"/>
<path d="M10.2666 18.6667L13.9999 14.9333L16.7999 17.7333L20.5333 14" fill="#A3E3FF"/>
<path d="M10.2666 18.6667L13.9999 14.9333L16.7999 17.7333L20.5333 14" stroke="#00AFFA" stroke-width="2" stroke-linecap="round" stroke-linejoin="round"/>
<path d="M18.6665 13.0667H21.4665V15.8667" fill="#A3E3FF"/>
<path d="M18.6665 13.0667H21.4665V15.8667" stroke="#00AFFA" stroke-width="2" stroke-linecap="round" stroke-linejoin="round"/>
<path d="M10.2666 22.4H21.4666" stroke="#00AFFA" stroke-width="2" stroke-linecap="round" stroke-linejoin="round"/>
<path d="M10.2666 10.2667H12.1333" stroke="#00AFFA" stroke-width="2" stroke-linecap="round" stroke-linejoin="round"/>
</g>
<defs>
<clipPath id="clip0_511_6024">
<rect width="26.1333" height="28" fill="white"/>
</clipPath>
</defs>
</svg>
