<svg width="29" height="29" viewBox="0 0 29 29" fill="none" xmlns="http://www.w3.org/2000/svg">
<path d="M27.9999 1L27.9639 22.564" stroke="white" stroke-width="2" stroke-linecap="round" stroke-linejoin="round"/>
<path d="M27.9999 21.7L27.7299 21.43C26.1145 19.8041 24.1934 18.5138 22.0773 17.6334C19.9612 16.753 17.6919 16.2998 15.3999 16.3V16.3V7.30002C17.6833 7.30021 19.9443 6.85042 22.0538 5.97636C24.1633 5.10231 26.0798 3.82112 27.6939 2.20602L27.9999 1.90002" stroke="white" stroke-width="2" stroke-linecap="round" stroke-linejoin="round"/>
<path d="M14.5001 6.40002H5.5001C5.00304 6.40002 4.6001 6.80297 4.6001 7.30002V16.3C4.6001 16.7971 5.00304 17.2 5.5001 17.2H14.5001C14.9972 17.2 15.4001 16.7971 15.4001 16.3V7.30002C15.4001 6.80297 14.9972 6.40002 14.5001 6.40002Z" stroke="white" stroke-width="2" stroke-linecap="round" stroke-linejoin="round"/>
<path d="M4.6 7.30005V16.3C3.64522 16.3 2.72954 15.9208 2.05441 15.2456C1.37928 14.5705 1 13.6548 1 12.7V10.9C1 9.94527 1.37928 9.02959 2.05441 8.35446C2.72954 7.67933 3.64522 7.30005 4.6 7.30005Z" stroke="white" stroke-width="2" stroke-linecap="round" stroke-linejoin="round"/>
<path d="M6.3999 17.2L8.1999 28H11.7999V20.8" stroke="white" stroke-width="2" stroke-linecap="round" stroke-linejoin="round"/>
<path d="M8.2002 10H10.0002" stroke="#00AFFA" stroke-width="2" stroke-linecap="round" stroke-linejoin="round"/>
<path d="M8.2002 13.6H10.0002" stroke="#00AFFA" stroke-width="2" stroke-linecap="round" stroke-linejoin="round"/>
</svg>
