<svg width="29" height="30" viewBox="0 0 29 30" fill="none" xmlns="http://www.w3.org/2000/svg">
<path d="M27.1334 14.0666V27.1333C27.1334 27.6283 26.9368 28.1031 26.5867 28.4532C26.2366 28.8033 25.7618 28.9999 25.2668 28.9999H8.46676C7.97169 28.9999 7.4969 28.8033 7.14683 28.4532C6.79676 28.1031 6.6001 27.6283 6.6001 27.1333V6.59994C6.6001 6.10487 6.79676 5.63008 7.14683 5.28001C7.4969 4.92994 7.97169 4.73328 8.46676 4.73328H21.5334" fill="#A3E3FF"/>
<path d="M27.1334 14.0666V27.1333C27.1334 27.6283 26.9368 28.1031 26.5867 28.4532C26.2366 28.8033 25.7618 28.9999 25.2668 28.9999H8.46676C7.97169 28.9999 7.4969 28.8033 7.14683 28.4532C6.79676 28.1031 6.6001 27.6283 6.6001 27.1333V6.59994C6.6001 6.10487 6.79676 5.63008 7.14683 5.28001C7.4969 4.92994 7.97169 4.73328 8.46676 4.73328H21.5334" stroke="white" stroke-width="2" stroke-linecap="round" stroke-linejoin="round"/>
<path d="M6.6 25.2667H2.86667C2.3716 25.2667 1.8968 25.07 1.54673 24.7199C1.19666 24.3699 1 23.8951 1 23.4V2.86667C1 2.3716 1.19666 1.8968 1.54673 1.54673C1.8968 1.19667 2.3716 1 2.86667 1H19.6667C20.1617 1 20.6365 1.19667 20.9866 1.54673C21.3367 1.8968 21.5333 2.3716 21.5333 2.86667V4.73333" fill="#A3E3FF"/>
<path d="M6.6 25.2667H2.86667C2.3716 25.2667 1.8968 25.07 1.54673 24.7199C1.19666 24.3699 1 23.8951 1 23.4V2.86667C1 2.3716 1.19666 1.8968 1.54673 1.54673C1.8968 1.19667 2.3716 1 2.86667 1H19.6667C20.1617 1 20.6365 1.19667 20.9866 1.54673C21.3367 1.8968 21.5333 2.3716 21.5333 2.86667V4.73333" stroke="white" stroke-width="2" stroke-linecap="round" stroke-linejoin="round"/>
<path d="M27.1332 10.3333H21.5332V4.73328L27.1332 10.3333Z" fill="#A3E3FF" stroke="white" stroke-width="2" stroke-linecap="round" stroke-linejoin="round"/>
<path d="M11.2666 19.6667L14.9999 15.9333L17.7999 18.7333L21.5333 15" fill="#A3E3FF"/>
<path d="M11.2666 19.6667L14.9999 15.9333L17.7999 18.7333L21.5333 15" stroke="#00AFFA" stroke-width="2" stroke-linecap="round" stroke-linejoin="round"/>
<path d="M19.6665 14.0667H22.4665V16.8667" fill="#A3E3FF"/>
<path d="M19.6665 14.0667H22.4665V16.8667" stroke="#00AFFA" stroke-width="2" stroke-linecap="round" stroke-linejoin="round"/>
<path d="M11.2666 23.4H22.4666" stroke="#00AFFA" stroke-width="2" stroke-linecap="round" stroke-linejoin="round"/>
<path d="M11.2666 11.2667H13.1333" stroke="#00AFFA" stroke-width="2" stroke-linecap="round" stroke-linejoin="round"/>
</svg>
