<svg width="200" height="27" viewBox="0 0 200 27" fill="none" xmlns="http://www.w3.org/2000/svg">
<g clip-path="url(#clip0_511_3617)">
<path d="M158.449 19.8732C158.449 20.8986 158.17 21.8323 157.61 22.7354C157.111 23.5139 156.396 24.2289 155.496 24.8827C154.625 25.473 153.631 25.941 152.542 26.2515C151.422 26.5619 150.239 26.7171 149.028 26.7171C147.817 26.7171 146.634 26.5619 145.545 26.2515C144.456 25.941 143.461 25.473 142.591 24.8827C141.721 24.323 141.006 23.6386 140.477 22.8295L142.84 21.3361C143.026 21.616 143.245 21.8653 143.494 22.0816C143.713 22.3003 143.929 22.4556 144.148 22.5802C144.802 23.0153 145.547 23.3587 146.387 23.5751C147.226 23.7938 148.097 23.9161 149.03 23.9161C149.964 23.9161 150.865 23.7914 151.704 23.5751C152.544 23.3563 153.259 23.0153 153.913 22.5802C154.068 22.4861 154.254 22.3309 154.473 22.1451C154.658 21.9899 154.846 21.7712 155.032 21.5548C155.187 21.3361 155.343 21.0562 155.467 20.7763C155.592 20.4965 155.653 20.2166 155.653 19.8732C155.653 19.5322 155.592 19.2194 155.467 18.9395C155.343 18.6597 155.187 18.4104 155.032 18.194C154.846 17.9753 154.658 17.7589 154.473 17.5731C154.254 17.4179 154.068 17.2627 153.913 17.1686C153.259 16.7335 152.544 16.3901 151.704 16.1432C150.865 15.9244 149.962 15.8022 149.03 15.8022V13.0034C150.773 13.0034 152.264 12.5683 153.478 11.6982C154.536 10.8891 155.063 9.98835 155.063 8.96058C155.063 7.93517 154.534 7.03206 153.478 6.22302C152.264 5.35283 150.771 4.91773 149.03 4.91773C148.191 4.91773 147.382 5.04238 146.636 5.25875C145.858 5.47748 145.206 5.8185 144.613 6.22302C143.929 6.72161 143.463 7.28136 143.214 7.87167L140.82 6.44174L140.975 6.13129C141.441 5.35283 142.095 4.63786 142.965 3.98405C143.774 3.39373 144.708 2.92571 145.764 2.58469C146.789 2.27424 147.878 2.11902 149.03 2.11902C150.183 2.11902 151.3 2.27424 152.328 2.58469C153.353 2.92571 154.287 3.39373 155.126 3.98405C155.966 4.57436 156.62 5.28933 157.116 6.13129C157.615 7.03441 157.862 7.99632 157.862 8.96058C157.862 9.95542 157.612 10.8891 157.116 11.7899C156.867 12.1944 156.587 12.5989 156.246 12.9399C155.905 13.3139 155.531 13.6549 155.126 13.9348C155.032 14.0288 154.941 14.09 154.877 14.1206C154.783 14.1817 154.691 14.2452 154.597 14.3064C154.938 14.4616 155.218 14.6474 155.5 14.8661C156.403 15.4564 157.085 16.1714 157.615 17.0134C158.17 17.9141 158.449 18.8784 158.449 19.8732ZM165.881 25.6894C164.482 25.005 163.393 23.9796 162.554 22.6108L162.523 22.5802C161.933 21.5854 161.498 20.433 161.218 19.0971C160.938 17.7613 160.783 16.2043 160.783 14.4004C160.783 12.566 160.938 11.0091 161.218 9.6732C161.498 8.33499 161.963 7.18493 162.556 6.19009C163.334 4.85188 164.454 3.7959 165.853 3.08093C167.222 2.42711 168.807 2.08609 170.611 2.08609C172.384 2.08609 173.969 2.42711 175.338 3.08093C176.738 3.7959 177.857 4.85423 178.666 6.22302L176.239 7.62238C175.15 5.78792 173.285 4.88481 170.609 4.88481C167.935 4.88481 166.037 5.8185 164.948 7.65295C164.482 8.36792 164.169 9.27103 163.953 10.2964C163.734 11.3219 163.642 12.566 163.612 14.0288C164.701 13.2504 165.945 12.5989 167.283 12.0697C168.092 11.7899 168.932 11.5712 169.802 11.4794C170.672 11.3877 171.545 11.4183 172.445 11.5735C174.249 11.8534 175.804 12.5378 177.079 13.6267C178.043 14.4663 178.727 15.4917 179.132 16.6441C179.536 17.9188 179.597 19.257 179.287 20.6564C179.068 21.6207 178.664 22.4908 178.104 23.2693C177.544 24.0478 176.799 24.7322 175.865 25.259C175.087 25.7247 174.28 26.0986 173.377 26.3173C172.474 26.5666 171.542 26.6913 170.609 26.6913C168.838 26.6866 167.25 26.3432 165.881 25.6894ZM170.609 23.8855C171.262 23.8855 171.883 23.7914 172.537 23.6362C173.191 23.481 173.781 23.2317 174.341 22.8907C174.87 22.5802 175.336 22.1757 175.74 21.7077C176.145 21.2397 176.394 20.6823 176.549 20.059C176.735 19.1888 176.735 18.3798 176.519 17.6319C176.3 16.9169 175.865 16.2631 175.244 15.7339C174.809 15.36 174.31 15.0496 173.751 14.8003C173.191 14.5815 172.601 14.3957 172.008 14.3017C171.385 14.2076 170.764 14.2076 170.11 14.2711C169.456 14.3322 168.866 14.4569 168.276 14.6756C166.627 15.2965 165.103 16.2302 163.765 17.4438C163.983 18.9678 164.386 20.2119 164.948 21.1456C166.07 22.9847 167.965 23.8855 170.609 23.8855ZM182.801 22.8295C182.21 21.8347 181.775 20.6517 181.495 19.2829C181.216 17.9141 181.06 16.296 181.06 14.4004C181.06 12.5025 181.216 10.8538 181.495 9.48505C181.775 8.14684 182.21 6.96621 182.801 5.97137C184.355 3.38902 186.938 2.08374 190.545 2.08374C194.153 2.08374 196.735 3.38902 198.259 5.97137C198.85 6.96621 199.318 8.14919 199.598 9.48505C199.878 10.8538 200.002 12.5025 200.002 14.4004C200.002 16.2984 199.878 17.9141 199.598 19.2829C199.318 20.6517 198.852 21.8323 198.259 22.8295C196.674 25.4119 194.123 26.6866 190.545 26.6866C186.968 26.6866 184.388 25.4095 182.801 22.8295ZM187.279 5.47277C186.408 5.87729 185.724 6.53111 185.195 7.4013C184.729 8.17977 184.416 9.1111 184.2 10.2306C183.981 11.3807 183.859 12.7494 183.859 14.3981C183.859 16.0162 183.984 17.385 184.2 18.535C184.419 19.6851 184.76 20.6188 185.225 21.3972C185.755 22.2674 186.439 22.8907 187.309 23.2952C188.149 23.6997 189.238 23.8855 190.543 23.8855C191.848 23.8855 192.937 23.6997 193.81 23.2952C194.649 22.8907 195.334 22.2698 195.863 21.3972C196.766 19.8732 197.201 17.5402 197.201 14.3981C197.201 12.7494 197.107 11.3807 196.891 10.2306C196.672 9.1111 196.331 8.17742 195.865 7.4013C195.336 6.53111 194.652 5.87729 193.812 5.47277C192.942 5.06825 191.853 4.88246 190.545 4.88246C189.238 4.88246 188.151 5.06825 187.279 5.47277Z" fill="url(#paint0_linear_511_3617)"/>
<path fill-rule="evenodd" clip-rule="evenodd" d="M60.177 22.9684C61.8186 17.6673 62.2607 11.449 62.637 5.78804C62.6629 5.39998 62.5406 5.05661 62.2749 4.77203C62.0091 4.48746 61.6751 4.34399 61.2847 4.34399H60.9437C60.2311 4.34399 59.6431 4.89198 59.5914 5.60459C59.2692 10.1719 59.0951 16.4984 56.9596 20.0168C55.5297 22.3734 53.4789 23.9162 55.5203 25.5696C57.804 27.4205 59.4314 25.372 60.177 22.9684Z" fill="#00AFFA"/>
<path d="M18.8549 2.01319C18.8549 0.994838 19.6804 0.169334 20.6987 0.169334C21.7171 0.169334 22.5426 0.994838 22.5426 2.01319V14.3934C22.5426 14.5227 22.5285 14.6497 22.505 14.7697C22.2909 17.5284 21.0821 20.0073 19.2382 21.8512C17.1992 23.8902 14.3816 25.1508 11.2701 25.1508C8.15861 25.1508 5.34108 23.8902 3.30201 21.8512C1.2606 19.8144 0 16.9969 0 13.8854C0 12.8694 0.823152 12.0462 1.83916 12.0462C2.85516 12.0462 3.67831 12.8694 3.67831 13.8854C3.67831 15.9809 4.52733 17.8789 5.90082 19.2547C7.27431 20.6282 9.17226 21.4772 11.2701 21.4772C13.368 21.4772 15.2659 20.6282 16.6394 19.2547C17.9541 17.94 18.789 16.1455 18.8572 14.1559V2.01319H18.8549ZM93.1126 21.4772C94.1286 21.4772 94.9517 22.3004 94.9517 23.3164C94.9517 24.3324 94.1286 25.1555 93.1126 25.1555C89.6812 25.1555 86.5744 23.7656 84.326 21.5148C82.0776 19.2665 80.6853 16.1596 80.6853 12.7283C80.6853 9.29691 82.0776 6.1901 84.326 3.94172C86.5744 1.69334 89.6812 0.301038 93.1126 0.301038C96.5439 0.301038 99.6507 1.69099 101.899 3.94172C104.747 6.78983 105.537 9.75317 105.537 13.4385V23.3164C105.537 24.3347 104.712 25.1602 103.694 25.1602C102.675 25.1602 101.85 24.3347 101.85 23.3164V12.3049C101.744 10.0566 100.789 8.02926 99.298 6.53818C97.7152 4.95537 95.5279 3.97465 93.1102 3.97465C90.6949 3.97465 88.5053 4.95302 86.9225 6.53818C85.3397 8.12098 84.3589 10.3082 84.3589 12.7259C84.3589 15.1413 85.3373 17.3309 86.9225 18.9137C88.5076 20.4965 90.6949 21.4772 93.1126 21.4772ZM128.713 2.71875C129.43 2.00143 130.594 2.00143 131.312 2.71875C132.029 3.43607 132.029 4.60024 131.312 5.31756L111.838 24.791C111.121 25.5083 109.957 25.5083 109.239 24.791C108.522 24.0737 108.522 22.9095 109.239 22.1922L117.678 13.7537L109.239 5.31521C108.522 4.59789 108.522 3.43372 109.239 2.7164C109.957 1.99908 111.121 1.99908 111.838 2.7164L120.277 11.1549L128.713 2.71875ZM67.8583 0H67.6607C66.7505 0 66.0074 0.743189 66.0074 1.65336C66.0074 0.743189 65.2642 0 64.354 0H63.7472H62.7006H57.162C56.6634 0 56.3788 0.00235187 55.8873 0.108186C54.2763 0.449206 53.8882 1.02776 52.8299 4.4897L53.7048 4.47795C54.114 3.79826 54.0952 3.53955 56.8445 3.41961H62.6983V3.42431H64.3516C65.2618 3.42431 66.005 2.68112 66.005 1.77095C66.005 2.68112 66.7482 3.42431 67.6584 3.42431H67.8559V3.42901C69.3352 3.45489 69.0836 3.49252 69.7092 3.49016L68.5685 17.479C68.1993 21.9993 68.9213 25.0003 72.2351 26.1456C74.7563 27.0158 78.1877 25.1014 79.3377 18.615L78.4816 18.6126C77.5315 21.2914 76.2168 23.4786 73.9661 22.9377C72.5502 22.5967 71.7436 21.1103 71.9952 17.6343L73.0183 3.50663L77.6867 3.49487C78.1547 3.49252 78.5569 3.32553 78.8862 2.99392C79.2154 2.66231 79.3801 2.25779 79.3777 1.78977V1.68393C79.373 0.7573 78.6133 0 77.682 0H69.3164H67.8583ZM122.342 18.448C121.612 17.7189 121.612 16.5336 122.342 15.8045C123.071 15.0754 124.256 15.0754 124.985 15.8045L131.302 22.1216C132.031 22.8507 132.031 24.036 131.302 24.7651C130.573 25.4942 129.388 25.4942 128.659 24.7651L122.342 18.448ZM46.3246 17.1074C46.8279 16.2302 47.9474 15.9292 48.8247 16.4325C49.7019 16.9358 50.0029 18.0552 49.4996 18.9325C48.3896 20.854 46.8115 22.4062 44.9535 23.4786L44.9558 23.481C43.0932 24.5581 40.9553 25.1508 38.7422 25.1508C35.3109 25.1508 32.204 23.7609 29.9557 21.5101C27.7073 19.2617 26.315 16.1549 26.315 12.7236C26.315 9.29221 27.7073 6.1854 29.9557 3.93702C32.204 1.68864 35.3109 0.296335 38.7422 0.296335C43.1284 0.296335 47.1925 2.62233 49.4267 6.39236C49.4526 6.43234 49.4785 6.47232 49.5043 6.51466C50.01 7.39425 49.7066 8.51374 48.827 9.01939L39.6571 14.3134C38.7799 14.8191 37.658 14.5157 37.1524 13.6361C36.6467 12.7589 36.9501 11.637 37.8297 11.1314L45.2428 6.85097C43.5871 5.01652 41.2258 3.97229 38.7422 3.97229C36.3269 3.97229 34.1373 4.95067 32.5545 6.53582C30.9717 8.11863 29.9909 10.3059 29.9909 12.7236C29.9909 15.1389 30.9693 17.3285 32.5545 18.9113C34.1373 20.4941 36.3245 21.4749 38.7422 21.4749C40.3109 21.4749 41.8138 21.0586 43.1167 20.3083L43.119 20.3107L43.1237 20.3083C44.4314 19.5534 45.5438 18.4621 46.3246 17.1074Z" fill="white"/>
</g>
<defs>
<linearGradient id="paint0_linear_511_3617" x1="140.471" y1="14.4001" x2="200.001" y2="14.4001" gradientUnits="userSpaceOnUse">
<stop stop-color="white"/>
<stop offset="1" stop-color="#00AFFA"/>
</linearGradient>
<clipPath id="clip0_511_3617">
<rect width="200" height="26.7172" fill="white"/>
</clipPath>
</defs>
</svg>
