<svg width="285" height="38" viewBox="0 0 285 38" fill="none" xmlns="http://www.w3.org/2000/svg">
<g style="mix-blend-mode:luminosity">
<path d="M225.366 28.2659C225.366 29.7243 224.968 31.0523 224.172 32.3369C223.463 33.4441 222.446 34.461 221.165 35.3909C219.927 36.2306 218.512 36.8962 216.964 37.3378C215.371 37.7793 213.689 38.0001 211.966 38.0001C210.243 38.0001 208.561 37.7793 207.012 37.3378C205.463 36.8962 204.048 36.2306 202.81 35.3909C201.573 34.5948 200.556 33.6214 199.803 32.4707L203.165 30.3465C203.429 30.7446 203.74 31.0992 204.095 31.4069C204.406 31.718 204.714 31.9388 205.025 32.1161C205.955 32.7349 207.015 33.2233 208.209 33.5311C209.404 33.8422 210.641 34.0161 211.969 34.0161C213.297 34.0161 214.578 33.8388 215.773 33.5311C216.967 33.22 217.984 32.7349 218.914 32.1161C219.135 31.9823 219.399 31.7615 219.71 31.4972C219.974 31.2765 220.242 30.9654 220.506 30.6576C220.727 30.3465 220.948 29.9485 221.125 29.5504C221.302 29.1523 221.389 28.7543 221.389 28.2659C221.389 27.7809 221.302 27.336 221.125 26.9379C220.948 26.5398 220.727 26.1852 220.506 25.8775C220.242 25.5664 219.974 25.2587 219.71 24.9944C219.399 24.7736 219.135 24.5528 218.914 24.419C217.984 23.8002 216.967 23.3118 215.773 22.9606C214.578 22.6495 213.294 22.4755 211.969 22.4755V18.4949C214.448 18.4949 216.569 17.876 218.295 16.6384C219.8 15.4876 220.549 14.2065 220.549 12.7447C220.549 11.2862 219.797 10.0017 218.295 8.85098C216.569 7.6133 214.445 6.99446 211.969 6.99446C210.775 6.99446 209.624 7.17175 208.564 7.4795C207.457 7.79059 206.53 8.27563 205.687 8.85098C204.714 9.56014 204.051 10.3563 203.697 11.1959L200.292 9.16208L200.512 8.72052C201.175 7.6133 202.105 6.59639 203.342 5.66646C204.493 4.82684 205.821 4.16117 207.323 3.67613C208.781 3.23458 210.33 3.0138 211.969 3.0138C213.608 3.0138 215.197 3.23458 216.659 3.67613C218.118 4.16117 219.446 4.82684 220.64 5.66646C221.834 6.50607 222.764 7.52298 223.47 8.72052C224.179 10.005 224.53 11.3732 224.53 12.7447C224.53 14.1596 224.176 15.4876 223.47 16.7688C223.115 17.3442 222.717 17.9195 222.232 18.4046C221.747 18.9364 221.215 19.4215 220.64 19.8195C220.506 19.9533 220.376 20.0403 220.285 20.0838C220.151 20.1708 220.021 20.2611 219.887 20.3481C220.372 20.5688 220.77 20.8331 221.172 21.1442C222.456 21.9838 223.426 23.0007 224.179 24.1983C224.968 25.4794 225.366 26.8509 225.366 28.2659ZM235.937 36.5383C233.947 35.5649 232.398 34.1064 231.204 32.1596L231.16 32.1161C230.32 30.7011 229.702 29.062 229.304 27.162C228.906 25.262 228.685 23.0475 228.685 20.4819C228.685 17.8727 228.906 15.6582 229.304 13.7582C229.702 11.8549 230.364 10.2191 231.207 8.80415C232.314 6.90079 233.906 5.39885 235.897 4.38194C237.844 3.45201 240.098 2.96697 242.664 2.96697C245.186 2.96697 247.441 3.45201 249.388 4.38194C251.378 5.39885 252.97 6.90414 254.121 8.85098L250.669 10.8413C249.12 8.23214 246.467 6.94763 242.661 6.94763C238.857 6.94763 236.158 8.27563 234.609 10.8848C233.947 11.9017 233.502 13.1862 233.194 14.6447C232.883 16.1031 232.752 17.8727 232.709 19.9533C234.258 18.8461 236.027 17.9195 237.931 17.1669C239.081 16.7688 240.275 16.4577 241.513 16.3273C242.751 16.1968 243.992 16.2403 245.273 16.4611C247.839 16.8591 250.05 17.8326 251.863 19.3813C253.234 20.5755 254.208 22.034 254.783 23.6731C255.358 25.4861 255.445 27.3895 255.004 29.3798C254.693 30.7513 254.117 31.989 253.321 33.0962C252.525 34.2034 251.465 35.1768 250.137 35.9261C249.03 36.5885 247.882 37.1203 246.598 37.4314C245.313 37.786 243.989 37.9633 242.661 37.9633C240.142 37.9566 237.884 37.4682 235.937 36.5383ZM242.661 33.9726C243.59 33.9726 244.474 33.8388 245.404 33.618C246.333 33.3973 247.173 33.0427 247.969 32.5576C248.722 32.1161 249.384 31.5407 249.96 30.8751C250.535 30.2094 250.889 29.4166 251.11 28.5302C251.374 27.2925 251.374 26.1418 251.067 25.078C250.756 24.0611 250.137 23.1312 249.254 22.3785C248.635 21.8467 247.926 21.4051 247.13 21.0505C246.333 20.7394 245.494 20.4752 244.651 20.3414C243.764 20.2076 242.881 20.2076 241.951 20.2979C241.021 20.3849 240.182 20.5621 239.342 20.8732C236.997 21.7563 234.83 23.0843 232.926 24.8104C233.237 26.978 233.809 28.7476 234.609 30.0756C236.204 32.6914 238.901 33.9726 242.661 33.9726ZM260.001 32.4707C259.162 31.0557 258.543 29.3731 258.145 27.4263C257.747 25.4794 257.526 23.178 257.526 20.4819C257.526 17.7824 257.747 15.4375 258.145 13.4906C258.543 11.5873 259.162 9.90803 260.001 8.49306C262.213 4.82015 265.885 2.96362 271.017 2.96362C276.148 2.96362 279.821 4.82015 281.989 8.49306C282.828 9.90803 283.494 11.5906 283.892 13.4906C284.29 15.4375 284.467 17.7824 284.467 20.4819C284.467 23.1814 284.29 25.4794 283.892 27.4263C283.494 29.3731 282.832 31.0523 281.989 32.4707C279.734 36.1436 276.105 37.9566 271.017 37.9566C265.929 37.9566 262.259 36.1402 260.001 32.4707ZM266.371 7.7839C265.133 8.35925 264.159 9.28919 263.407 10.5269C262.744 11.6341 262.3 12.9588 261.992 14.551C261.681 16.1868 261.507 18.1336 261.507 20.4785C261.507 22.7799 261.684 24.7268 261.992 26.3625C262.303 27.9983 262.788 29.3263 263.45 30.4335C264.203 31.6712 265.176 32.5576 266.414 33.133C267.608 33.7084 269.157 33.9726 271.014 33.9726C272.87 33.9726 274.419 33.7084 275.66 33.133C276.854 32.5576 277.827 31.6745 278.58 30.4335C279.865 28.2659 280.483 24.9476 280.483 20.4785C280.483 18.1336 280.35 16.1868 280.042 14.551C279.731 12.9588 279.246 11.6308 278.583 10.5269C277.831 9.28919 276.857 8.35925 275.663 7.7839C274.426 7.20854 272.877 6.94428 271.017 6.94428C269.157 6.94428 267.612 7.20854 266.371 7.7839Z" fill="url(#paint0_linear_512_2930)"/>
<path fill-rule="evenodd" clip-rule="evenodd" d="M85.5906 32.668C87.9255 25.1282 88.5544 16.2837 89.0896 8.23211C89.1264 7.68017 88.9524 7.19179 88.5744 6.78703C88.1964 6.38227 87.7214 6.17822 87.1661 6.17822H86.6811C85.6675 6.17822 84.8313 6.95763 84.7577 7.97119C84.2994 14.4674 84.0519 23.4657 81.0145 28.4699C78.9807 31.8217 76.0638 34.0161 78.9673 36.3677C82.2154 39.0003 84.5302 36.0867 85.5906 32.668Z" fill="#F5F5F5"/>
<path d="M26.8176 2.8634C26.8176 1.41497 27.9917 0.240847 29.4401 0.240847C30.8886 0.240847 32.0627 1.41497 32.0627 2.8634V20.472C32.0627 20.6559 32.0426 20.8366 32.0092 21.0072C31.7048 24.931 29.9854 28.4567 27.3628 31.0792C24.4627 33.9794 20.4552 35.7724 16.0297 35.7724C11.6041 35.7724 7.5967 33.9794 4.69651 31.0792C1.79297 28.1824 0 24.175 0 19.7494C0 18.3043 1.17078 17.1336 2.61586 17.1336C4.06094 17.1336 5.23172 18.3043 5.23172 19.7494C5.23172 22.7299 6.4393 25.4294 8.39283 27.3863C10.3464 29.3398 13.0459 30.5474 16.0297 30.5474C19.0135 30.5474 21.713 29.3398 23.6665 27.3863C25.5364 25.5164 26.7239 22.9641 26.8209 20.1341V2.8634H26.8176ZM132.436 30.5474C133.881 30.5474 135.051 31.7182 135.051 33.1632C135.051 34.6083 133.881 35.7791 132.436 35.7791C127.555 35.7791 123.136 33.8022 119.938 30.6009C116.74 27.403 114.76 22.9841 114.76 18.1036C114.76 13.2231 116.74 8.80428 119.938 5.60637C123.136 2.40847 127.555 0.428172 132.436 0.428172C137.316 0.428172 141.735 2.40512 144.933 5.60637C148.984 9.65728 150.108 13.8721 150.108 19.1139V33.1632C150.108 34.6117 148.933 35.7858 147.485 35.7858C146.037 35.7858 144.863 34.6117 144.863 33.1632V17.5015C144.712 14.3036 143.354 11.4201 141.233 9.29935C138.982 7.04811 135.871 5.6532 132.432 5.6532C128.997 5.6532 125.882 7.04476 123.631 9.29935C121.38 11.5506 119.985 14.6615 119.985 18.1003C119.985 21.5357 121.377 24.65 123.631 26.9012C125.886 29.1525 128.997 30.5474 132.436 30.5474ZM183.07 3.86693C184.09 2.84667 185.746 2.84667 186.766 3.86693C187.787 4.88718 187.787 6.543 186.766 7.56325L159.069 35.2606C158.049 36.2809 156.393 36.2809 155.373 35.2606C154.353 34.2404 154.353 32.5845 155.373 31.5643L167.375 19.5621L155.373 7.55991C154.353 6.53965 154.353 4.88383 155.373 3.86358C156.393 2.84333 158.049 2.84333 159.069 3.86358L171.071 15.8658L183.07 3.86693ZM96.5159 0H96.2349C94.9404 0 93.8833 1.05705 93.8833 2.3516C93.8833 1.05705 92.8263 0 91.5317 0H90.6687H89.1801H81.3024C80.5933 0 80.1885 0.0033451 79.4894 0.153874C77.198 0.638912 76.6461 1.4618 75.1408 6.38578L76.3852 6.36905C76.9672 5.40232 76.9404 5.03436 80.8508 4.86376H89.1768V4.87045H91.5284C92.8229 4.87045 93.88 3.8134 93.88 2.51885C93.88 3.8134 94.937 4.87045 96.2316 4.87045H96.5126V4.87714C98.6166 4.91394 98.2587 4.96746 99.1485 4.96412L97.5261 24.8607C97.0009 31.29 98.0279 35.5583 102.741 37.1874C106.327 38.4251 111.208 35.7022 112.843 26.4764L111.626 26.4731C110.274 30.2831 108.404 33.394 105.203 32.6247C103.189 32.1396 102.042 30.0255 102.4 25.0815L103.855 4.98753L110.495 4.97081C111.161 4.96746 111.733 4.72996 112.201 4.2583C112.669 3.78664 112.904 3.21129 112.9 2.54561V2.39509C112.893 1.07712 111.813 0 110.488 0H98.5899H96.5159ZM174.008 26.2389C172.971 25.2019 172.971 23.516 174.008 22.479C175.045 21.442 176.731 21.442 177.768 22.479L186.753 31.4639C187.79 32.5009 187.79 34.1868 186.753 35.2238C185.716 36.2608 184.03 36.2608 182.993 35.2238L174.008 26.2389ZM65.8883 24.3322C66.6041 23.0845 68.1964 22.6563 69.4441 23.3722C70.6918 24.088 71.12 25.6803 70.4041 26.928C68.8253 29.6609 66.5807 31.8687 63.9381 33.394L63.9414 33.3974C61.2921 34.9294 58.2514 35.7724 55.1037 35.7724C50.2232 35.7724 45.8043 33.7955 42.6064 30.5942C39.4085 27.3963 37.4282 22.9774 37.4282 18.0969C37.4282 13.2165 39.4085 8.79759 42.6064 5.59968C45.8043 2.40178 50.2232 0.421481 55.1037 0.421481C61.3423 0.421481 67.1226 3.72978 70.3004 9.09196C70.3372 9.14882 70.374 9.20569 70.4108 9.2659C71.13 10.517 70.6985 12.1092 69.4474 12.8284L56.4049 20.3582C55.1572 21.0774 53.5616 20.6459 52.8424 19.3948C52.1232 18.1471 52.5547 16.5515 53.8058 15.8323L64.3495 9.74425C61.9946 7.13508 58.6361 5.64986 55.1037 5.64986C51.6683 5.64986 48.554 7.04142 46.3027 9.29601C44.0515 11.5473 42.6566 14.6582 42.6566 18.0969C42.6566 21.5324 44.0482 24.6466 46.3027 26.8979C48.554 29.1491 51.6649 30.544 55.1037 30.544C57.3349 30.544 59.4724 29.9519 61.3256 28.8849L61.3289 28.8882L61.3356 28.8849C63.1955 27.8111 64.7777 26.259 65.8883 24.3322Z" fill="white"/>
</g>
<defs>
<linearGradient id="paint0_linear_512_2930" x1="199.796" y1="20.4814" x2="284.466" y2="20.4814" gradientUnits="userSpaceOnUse">
<stop stop-color="white"/>
<stop offset="1" stop-color="#00AFFA"/>
</linearGradient>
</defs>
</svg>
