<svg width="111" height="110" viewBox="0 0 111 110" fill="none" xmlns="http://www.w3.org/2000/svg">
<circle opacity="0.613296" cx="23.9557" cy="3.21791" r="3.21791" fill="#A3E3FF"/>
<circle opacity="0.613296" cx="44.6935" cy="3.21791" r="3.21791" fill="#A3E3FF"/>
<circle opacity="0.613296" cx="65.4308" cy="3.21791" r="3.21791" fill="#A3E3FF"/>
<circle opacity="0.613296" cx="86.1686" cy="3.21791" r="3.21791" fill="#A3E3FF"/>
<circle opacity="0.613296" cx="106.906" cy="3.21791" r="3.21791" fill="#A3E3FF"/>
<circle opacity="0.613296" cx="3.21791" cy="23.9308" r="3.21791" fill="#A3E3FF"/>
<circle opacity="0.613296" cx="23.9557" cy="23.9308" r="3.21791" fill="#A3E3FF"/>
<circle opacity="0.613296" cx="44.6935" cy="23.9308" r="3.21791" fill="#A3E3FF"/>
<circle opacity="0.613296" cx="65.4308" cy="23.9308" r="3.21791" fill="#A3E3FF"/>
<circle opacity="0.613296" cx="86.1686" cy="23.9308" r="3.21791" fill="#A3E3FF"/>
<circle opacity="0.613296" cx="106.906" cy="23.9308" r="3.21791" fill="#A3E3FF"/>
<circle opacity="0.613296" cx="3.21791" cy="44.6437" r="3.21791" fill="#A3E3FF"/>
<circle opacity="0.613296" cx="23.9557" cy="44.6437" r="3.21791" fill="#A3E3FF"/>
<circle opacity="0.613296" cx="44.6935" cy="44.6437" r="3.21791" fill="#A3E3FF"/>
<circle opacity="0.613296" cx="65.4308" cy="44.6437" r="3.21791" fill="#A3E3FF"/>
<circle opacity="0.613296" cx="86.1686" cy="44.6437" r="3.21791" fill="#A3E3FF"/>
<circle opacity="0.613296" cx="106.906" cy="44.6437" r="3.21791" fill="#A3E3FF"/>
<circle opacity="0.613296" cx="3.21791" cy="65.3563" r="3.21791" fill="#A3E3FF"/>
<circle opacity="0.613296" cx="23.9557" cy="65.3563" r="3.21791" fill="#A3E3FF"/>
<circle opacity="0.613296" cx="44.6935" cy="65.3563" r="3.21791" fill="#A3E3FF"/>
<circle opacity="0.613296" cx="65.4308" cy="65.3563" r="3.21791" fill="#A3E3FF"/>
<circle opacity="0.613296" cx="86.1686" cy="65.3563" r="3.21791" fill="#A3E3FF"/>
<circle opacity="0.613296" cx="106.906" cy="65.3563" r="3.21791" fill="#A3E3FF"/>
<circle opacity="0.613296" cx="3.21791" cy="86.0692" r="3.21791" fill="#A3E3FF"/>
<circle opacity="0.613296" cx="23.9557" cy="86.0692" r="3.21791" fill="#A3E3FF"/>
<circle opacity="0.613296" cx="44.6935" cy="86.0692" r="3.21791" fill="#A3E3FF"/>
<circle opacity="0.613296" cx="65.4308" cy="86.0692" r="3.21791" fill="#A3E3FF"/>
<circle opacity="0.613296" cx="86.1686" cy="86.0692" r="3.21791" fill="#A3E3FF"/>
<circle opacity="0.613296" cx="106.906" cy="86.0692" r="3.21791" fill="#A3E3FF"/>
<circle opacity="0.613296" cx="3.21791" cy="106.782" r="3.21791" fill="#A3E3FF"/>
<circle opacity="0.613296" cx="23.9557" cy="106.782" r="3.21791" fill="#A3E3FF"/>
<circle opacity="0.613296" cx="44.6935" cy="106.782" r="3.21791" fill="#A3E3FF"/>
<circle opacity="0.613296" cx="65.4308" cy="106.782" r="3.21791" fill="#A3E3FF"/>
<circle opacity="0.613296" cx="86.1686" cy="106.782" r="3.21791" fill="#A3E3FF"/>
<circle opacity="0.613296" cx="106.906" cy="106.782" r="3.21791" fill="#A3E3FF"/>
</svg>
