<svg width="32" height="32" viewBox="0 0 32 32" fill="none" xmlns="http://www.w3.org/2000/svg">
<path d="M16 18C17.6569 18 19 16.6569 19 15C19 13.3431 17.6569 12 16 12C14.3431 12 13 13.3431 13 15C13 16.6569 14.3431 18 16 18Z" stroke="white" stroke-width="2" stroke-linecap="round" stroke-linejoin="round"/>
<path d="M10.4399 21.75C10.888 20.6424 11.6565 19.6938 12.6471 19.0257C13.6377 18.3576 14.8051 18.0004 15.9999 18C17.1947 18.0004 18.3622 18.3576 19.3528 19.0257C20.3433 19.6938 21.1119 20.6424 21.5599 21.75" stroke="white" stroke-width="2" stroke-linecap="round" stroke-linejoin="round"/>
<path d="M25.88 27.34L27.34 25.88C27.7005 25.5071 27.902 25.0087 27.902 24.49C27.902 23.9713 27.7005 23.4729 27.34 23.1V23.1C27.0614 22.8129 26.8753 22.4488 26.8058 22.0549C26.7363 21.6609 26.7865 21.2551 26.95 20.89C27.04 20.69 27.12 20.49 27.2 20.28C27.3412 19.9135 27.5872 19.5966 27.9073 19.369C28.2274 19.1414 28.6074 19.013 29 19C29.5304 19 30.0391 18.7893 30.4142 18.4142C30.7893 18.0391 31 17.5304 31 17V15C31 14.4696 30.7893 13.9609 30.4142 13.5858C30.0391 13.2107 29.5304 13 29 13C28.6023 12.9928 28.2157 12.8672 27.8897 12.6392C27.5637 12.4112 27.3131 12.0912 27.17 11.72C27.09 11.51 27.01 11.31 26.92 11.11C26.7565 10.7449 26.7063 10.3391 26.7758 9.94514C26.8453 9.55118 27.0314 9.18711 27.31 8.89999V8.89999C27.6705 8.52706 27.872 8.02867 27.872 7.50999C27.872 6.99132 27.6705 6.49293 27.31 6.12L25.85 4.66C25.4771 4.29952 24.9787 4.09802 24.46 4.09802C23.9413 4.09802 23.4429 4.29952 23.07 4.66V4.66C22.7829 4.93858 22.4188 5.12466 22.0249 5.19418C21.6309 5.26371 21.2251 5.21348 20.86 5.05L20.25 4.8C19.8891 4.65417 19.5786 4.40618 19.3565 4.08644C19.1345 3.76671 19.0106 3.38913 19 3C19 2.46957 18.7893 1.96086 18.4142 1.58578C18.0391 1.21071 17.5304 1 17 1H15C14.4696 1 13.9609 1.21071 13.5858 1.58578C13.2107 1.96086 13 2.46957 13 3C12.9928 3.39774 12.8672 3.78431 12.6392 4.11029C12.4112 4.43627 12.0912 4.68686 11.72 4.83L11.11 5.08C10.7449 5.24348 10.3391 5.29371 9.94514 5.22418C9.55118 5.15466 9.18711 4.96858 8.89999 4.69V4.69C8.52706 4.32952 8.02867 4.12802 7.50999 4.12802C6.99132 4.12802 6.49293 4.32952 6.12 4.69L4.66 6.14999C4.29952 6.52293 4.09802 7.02132 4.09802 7.53999C4.09802 8.05867 4.29952 8.55706 4.66 8.92999V8.92999C4.93858 9.21711 5.12466 9.58118 5.19418 9.97514C5.26371 10.3691 5.21348 10.7749 5.05 11.14C4.96 11.34 4.88 11.54 4.8 11.75C4.65417 12.1109 4.40618 12.4214 4.08644 12.6435C3.76671 12.8655 3.38913 12.9894 3 13C2.46957 13 1.96086 13.2107 1.58578 13.5858C1.21071 13.9609 1 14.4696 1 15V17C1 17.5304 1.21071 18.0391 1.58578 18.4142C1.96086 18.7893 2.46957 19 3 19C3.39774 19.0072 3.78431 19.1328 4.11029 19.3608C4.43627 19.5888 4.68686 19.9088 4.83 20.28C4.91 20.49 4.99 20.69 5.08 20.89C5.24348 21.2551 5.29371 21.6609 5.22418 22.0549C5.15466 22.4488 4.96858 22.8129 4.69 23.1C4.32952 23.4729 4.12802 23.9713 4.12802 24.49C4.12802 25.0087 4.32952 25.5071 4.69 25.88L6.14999 27.34C6.52293 27.7005 7.02132 27.902 7.53999 27.902C8.05867 27.902 8.55706 27.7005 8.92999 27.34V27.34C9.21711 27.0614 9.58118 26.8753 9.97514 26.8058C10.3691 26.7363 10.7749 26.7865 11.14 26.95L11.75 27.2C12.1109 27.3458 12.4214 27.5938 12.6435 27.9136C12.8655 28.2333 12.9894 28.6109 13 29C13 29.5304 13.2107 30.0391 13.5858 30.4142C13.9609 30.7893 14.4696 31 15 31H17C17.5304 31 18.0391 30.7893 18.4142 30.4142C18.7893 30.0391 19 29.5304 19 29C19.0072 28.6023 19.1328 28.2157 19.3608 27.8897C19.5888 27.5637 19.9088 27.3131 20.28 27.17L20.89 26.92" stroke="#00286B" stroke-width="2" stroke-linecap="round" stroke-linejoin="round"/>
<path d="M16 24C20.4183 24 24 20.4183 24 16C24 11.5817 20.4183 8 16 8C11.5817 8 8 11.5817 8 16C8 20.4183 11.5817 24 16 24Z" stroke="#00286B" stroke-width="2" stroke-linecap="round" stroke-linejoin="round"/>
</svg>
