<svg width="32" height="32" viewBox="0 0 32 32" fill="none" xmlns="http://www.w3.org/2000/svg">
<path d="M5 7H13" stroke="white" stroke-width="2" stroke-linecap="round" stroke-linejoin="round"/>
<path d="M5 11H19" stroke="white" stroke-width="2" stroke-linecap="round" stroke-linejoin="round"/>
<path d="M5 15H19" stroke="white" stroke-width="2" stroke-linecap="round" stroke-linejoin="round"/>
<path d="M5 19H19" stroke="white" stroke-width="2" stroke-linecap="round" stroke-linejoin="round"/>
<path d="M19 27H15" stroke="white" stroke-width="2" stroke-linecap="round" stroke-linejoin="round"/>
<path d="M23 11V29C23 29.5304 22.7893 30.0391 22.4142 30.4142C22.0391 30.7893 21.5304 31 21 31H3C2.46957 31 1.96086 30.7893 1.58579 30.4142C1.21071 30.0391 1 29.5304 1 29V3C1 2.46957 1.21071 1.96086 1.58579 1.58578C1.96086 1.21071 2.46957 1 3 1H17" stroke="#00286B" stroke-width="2" stroke-linecap="round" stroke-linejoin="round"/>
<path d="M31 28L29 31L27 28V9H31V28Z" stroke="#00286B" stroke-width="2" stroke-linecap="round" stroke-linejoin="round"/>
<path d="M29 5C29.5304 5 30.0391 5.21071 30.4142 5.58578C30.7893 5.96086 31 6.46957 31 7V9H27V7C27 6.46957 27.2107 5.96086 27.5858 5.58578C27.9609 5.21071 28.4696 5 29 5V5Z" stroke="#00286B" stroke-width="2" stroke-linecap="round" stroke-linejoin="round"/>
<path d="M23 7H17V1L23 7Z" stroke="#00286B" stroke-width="2" stroke-linecap="round" stroke-linejoin="round"/>
</svg>
