<svg width="32" height="32" viewBox="0 0 32 32" fill="none" xmlns="http://www.w3.org/2000/svg">
<path d="M7 25C8.5913 25 10.1174 25.6322 11.2426 26.7574C12.3679 27.8826 13 29.4087 13 31H1C1 29.4087 1.63214 27.8826 2.75736 26.7574C3.88258 25.6322 5.4087 25 7 25Z" stroke="#00286B" stroke-width="2" stroke-linecap="round" stroke-linejoin="round"/>
<path d="M7 25C8.65685 25 10 23.6569 10 22C10 20.3431 8.65685 19 7 19C5.34315 19 4 20.3431 4 22C4 23.6569 5.34315 25 7 25Z" stroke="#00286B" stroke-width="2" stroke-linecap="round" stroke-linejoin="round"/>
<path d="M25 25C26.5913 25 28.1174 25.6322 29.2426 26.7574C30.3679 27.8826 31 29.4087 31 31H19C19 29.4087 19.6321 27.8826 20.7574 26.7574C21.8826 25.6322 23.4087 25 25 25Z" stroke="#00286B" stroke-width="2" stroke-linecap="round" stroke-linejoin="round"/>
<path d="M25 25C26.6569 25 28 23.6569 28 22C28 20.3431 26.6569 19 25 19C23.3431 19 22 20.3431 22 22C22 23.6569 23.3431 25 25 25Z" stroke="#00286B" stroke-width="2" stroke-linecap="round" stroke-linejoin="round"/>
<path d="M27 8V11C27 11.5304 26.7893 12.0391 26.4142 12.4142C26.0391 12.7893 25.5304 13 25 13H23V15L20 13H12L9 15V13H7C6.46957 13 5.96086 12.7893 5.58578 12.4142C5.21071 12.0391 5 11.5304 5 11V3C5 2.46957 5.21071 1.96086 5.58578 1.58578C5.96086 1.21071 6.46957 1 7 1H25C25.5304 1 26.0391 1.21071 26.4142 1.58578C26.7893 1.96086 27 2.46957 27 3V4" stroke="#00286B" stroke-width="2" stroke-linecap="round" stroke-linejoin="round"/>
<path d="M9 5H16" stroke="white" stroke-width="2" stroke-linecap="round" stroke-linejoin="round"/>
<path d="M23 5H20" stroke="white" stroke-width="2" stroke-linecap="round" stroke-linejoin="round"/>
<path d="M16 9H23" stroke="white" stroke-width="2" stroke-linecap="round" stroke-linejoin="round"/>
<path d="M12 9H9" stroke="white" stroke-width="2" stroke-linecap="round" stroke-linejoin="round"/>
</svg>
