<svg width="32" height="32" viewBox="0 0 32 32" fill="none" xmlns="http://www.w3.org/2000/svg">
<path d="M16 7C17.5913 7 19.1174 7.63217 20.2426 8.75739C21.3679 9.8826 22 11.4087 22 13H10C10 11.4087 10.6321 9.8826 11.7574 8.75739C12.8826 7.63217 14.4087 7 16 7Z" stroke="#00286B" stroke-width="2" stroke-linecap="round" stroke-linejoin="round"/>
<path d="M16 7C17.6569 7 19 5.65685 19 4C19 2.34315 17.6569 1 16 1C14.3431 1 13 2.34315 13 4C13 5.65685 14.3431 7 16 7Z" stroke="#00286B" stroke-width="2" stroke-linecap="round" stroke-linejoin="round"/>
<path d="M9 31H1C1 29.4087 1.63214 27.8826 2.75736 26.7574C3.88258 25.6321 5.4087 25 7 25V25C8.5913 25 10.1174 25.6321 11.2426 26.7574C12.3679 27.8826 13 29.4087 13 31" stroke="#00286B" stroke-width="2" stroke-linecap="round" stroke-linejoin="round"/>
<path d="M7 25C8.65685 25 10 23.6569 10 22C10 20.3431 8.65685 19 7 19C5.34315 19 4 20.3431 4 22C4 23.6569 5.34315 25 7 25Z" stroke="#00286B" stroke-width="2" stroke-linecap="round" stroke-linejoin="round"/>
<path d="M25 25C26.5913 25 28.1174 25.6322 29.2426 26.7574C30.3679 27.8826 31 29.4087 31 31H19C19 29.4087 19.6321 27.8826 20.7574 26.7574C21.8826 25.6322 23.4087 25 25 25Z" stroke="#00286B" stroke-width="2" stroke-linecap="round" stroke-linejoin="round"/>
<path d="M25 25C26.6569 25 28 23.6569 28 22C28 20.3431 26.6569 19 25 19C23.3431 19 22 20.3431 22 22C22 23.6569 23.3431 25 25 25Z" stroke="#00286B" stroke-width="2" stroke-linecap="round" stroke-linejoin="round"/>
<path d="M16 17V20L14 22" stroke="white" stroke-width="2" stroke-linecap="round" stroke-linejoin="round"/>
<path d="M16 20L18 22" stroke="white" stroke-width="2" stroke-linecap="round" stroke-linejoin="round"/>
</svg>
