<svg width="33" height="32" viewBox="0 0 33 32" fill="none" xmlns="http://www.w3.org/2000/svg">
<path d="M11.9999 30.42C10.0563 29.8427 8.26116 28.8501 6.73881 27.5108C5.21647 26.1715 4.0032 24.5175 3.18292 22.6633C2.36263 20.809 1.9549 18.7987 1.98794 16.7713C2.02098 14.744 2.494 12.748 3.37426 10.9215C4.25453 9.09491 5.52106 7.48135 7.08624 6.19239C8.65142 4.90343 10.4779 3.96983 12.4394 3.45616C14.4008 2.94249 16.4505 2.86101 18.4465 3.21735C20.4426 3.57368 22.3374 4.35934 23.9999 5.51998" stroke="#00286B" stroke-width="2" stroke-linecap="round" stroke-linejoin="round"/>
<path d="M27.48 9C28.9413 11.0986 29.7999 13.5574 29.9625 16.1095C30.1252 18.6616 29.5857 21.2095 28.4027 23.4767C27.2196 25.7439 25.4382 27.6437 23.2517 28.97C21.0652 30.2963 18.5573 30.9983 16 31" stroke="#00286B" stroke-width="2" stroke-linecap="round" stroke-linejoin="round"/>
<path d="M16 26C20.9706 26 25 21.9706 25 17C25 12.0294 20.9706 8 16 8C11.0294 8 7 12.0294 7 17C7 21.9706 11.0294 26 16 26Z" stroke="#00286B" stroke-width="2" stroke-linecap="round" stroke-linejoin="round"/>
<path d="M16 21C18.2091 21 20 19.2091 20 17C20 14.7909 18.2091 13 16 13C13.7909 13 12 14.7909 12 17C12 19.2091 13.7909 21 16 21Z" stroke="#00286B" stroke-width="2" stroke-linecap="round" stroke-linejoin="round"/>
<path d="M16 17L31 2" stroke="white" stroke-width="2" stroke-linecap="round" stroke-linejoin="round"/>
<path d="M24 9V4L27 1L28 5L32 6L29 9H24Z" stroke="white" stroke-width="2" stroke-linecap="round" stroke-linejoin="round"/>
</svg>
