<svg width="50" height="64" viewBox="0 0 50 64" fill="none" xmlns="http://www.w3.org/2000/svg">
<rect width="50" height="64" rx="25" fill="#00AFFA"/>
<path fill-rule="evenodd" clip-rule="evenodd" d="M35.6364 38.8V25.2C35.6364 19.2353 30.8743 14.4 25 14.4C19.1257 14.4 14.3636 19.2353 14.3636 25.2V38.8C14.3636 44.7647 19.1257 49.6 25 49.6C30.8743 49.6 35.6364 44.7647 35.6364 38.8ZM25 12C17.8203 12 12 17.9098 12 25.2V38.8C12 46.0902 17.8203 52 25 52C32.1797 52 38 46.0902 38 38.8V25.2C38 17.9098 32.1797 12 25 12Z" fill="white"/>
<path d="M28.4667 40.2609C28.4667 41.9417 27.1086 43.3043 25.4333 43.3043C23.7581 43.3043 22.4 41.9417 22.4 40.2609C22.4 38.58 23.7581 37.2174 25.4333 37.2174C27.1086 37.2174 28.4667 38.58 28.4667 40.2609Z" fill="white"/>
</svg>
