<svg width="22" height="32" viewBox="0 0 22 32" fill="none" xmlns="http://www.w3.org/2000/svg">
<path d="M5 15L6 16L8 14" stroke="white" stroke-width="2" stroke-linecap="round" stroke-linejoin="round"/>
<path d="M12 15H17" stroke="white" stroke-width="2" stroke-linecap="round" stroke-linejoin="round"/>
<path d="M5 20L6 21L8 19" stroke="white" stroke-width="2" stroke-linecap="round" stroke-linejoin="round"/>
<path d="M12 20H17" stroke="white" stroke-width="2" stroke-linecap="round" stroke-linejoin="round"/>
<path d="M5 25L6 26L8 24" stroke="white" stroke-width="2" stroke-linecap="round" stroke-linejoin="round"/>
<path d="M12 25H17" stroke="white" stroke-width="2" stroke-linecap="round" stroke-linejoin="round"/>
<path d="M1 23V9C1 8.46957 1.21071 7.96086 1.58578 7.58578C1.96086 7.21071 2.46957 7 3 7H6" stroke="#00286B" stroke-width="2" stroke-linecap="round" stroke-linejoin="round"/>
<path d="M16 7H19C19.5304 7 20.0391 7.21071 20.4142 7.58578C20.7893 7.96086 21 8.46957 21 9V29C21 29.5304 20.7893 30.0391 20.4142 30.4142C20.0391 30.7893 19.5304 31 19 31H3C2.46957 31 1.96086 30.7893 1.58578 30.4142C1.21071 30.0391 1 29.5304 1 29V27" stroke="#00286B" stroke-width="2" stroke-linecap="round" stroke-linejoin="round"/>
<path d="M15 5H7C6.44772 5 6 5.44772 6 6V9C6 9.55228 6.44772 10 7 10H15C15.5523 10 16 9.55228 16 9V6C16 5.44772 15.5523 5 15 5Z" stroke="#00286B" stroke-width="2" stroke-linecap="round" stroke-linejoin="round"/>
<path d="M11 1C11.5304 1 12.0391 1.21071 12.4142 1.58578C12.7893 1.96086 13 2.46957 13 3V5H9V3C9 2.46957 9.21071 1.96086 9.58578 1.58578C9.96086 1.21071 10.4696 1 11 1Z" stroke="#00286B" stroke-width="2" stroke-linecap="round" stroke-linejoin="round"/>
</svg>
