<svg width="23" height="32" viewBox="0 0 23 32" fill="none" xmlns="http://www.w3.org/2000/svg">
<path d="M3 5.00001C4.05069 3.59952 5.45066 2.49945 7.0599 1.80977C8.66914 1.1201 10.4312 0.86501 12.17 1.07001C14.407 1.33204 16.49 2.34156 18.0817 3.93506C19.6734 5.52857 20.6805 7.61274 20.94 9.85001C21.0903 11.1591 20.9804 12.4851 20.6166 13.7516C20.2527 15.0181 19.6422 16.2002 18.82 17.23C17.1335 19.2468 15.9022 21.6038 15.21 24.14L15 25H7L6.78 24.14C6.10341 21.6077 4.87775 19.2554 3.19 17.25C1.77132 15.4759 0.998936 13.2716 1 11C1.00066 10.3284 1.06765 9.65846 1.2 9.00001" stroke="#00286B" stroke-width="2" stroke-linecap="round" stroke-linejoin="round"/>
<path d="M7 25H15V27C15 28.0609 14.5786 29.0783 13.8284 29.8284C13.0783 30.5786 12.0609 31 11 31C9.93913 31 8.92172 30.5786 8.17157 29.8284C7.42142 29.0783 7 28.0609 7 27V25Z" stroke="#00286B" stroke-width="2" stroke-linecap="round" stroke-linejoin="round"/>
<path d="M13 8H11C10.4696 8 9.96086 8.21071 9.58578 8.58578C9.21071 8.96086 9 9.46957 9 10C9 10.5304 9.21071 11.0391 9.58578 11.4142C9.96086 11.7893 10.4696 12 11 12C11.5304 12 12.0391 12.2107 12.4142 12.5858C12.7893 12.9609 13 13.4696 13 14C13 14.5304 12.7893 15.0391 12.4142 15.4142C12.0391 15.7893 11.5304 16 11 16H9" stroke="white" stroke-width="2" stroke-linecap="round" stroke-linejoin="round"/>
<path d="M11 8V7" stroke="white" stroke-width="2" stroke-linecap="round" stroke-linejoin="round"/>
<path d="M11 16V17" stroke="white" stroke-width="2" stroke-linecap="round" stroke-linejoin="round"/>
</svg>
