<svg width="32" height="32" viewBox="0 0 32 32" fill="none" xmlns="http://www.w3.org/2000/svg">
<path d="M25.88 27.34L27.34 25.88C27.7005 25.5071 27.902 25.0087 27.902 24.49C27.902 23.9713 27.7005 23.4729 27.34 23.1V23.1C27.0697 22.8074 26.8929 22.4407 26.8323 22.047C26.7717 21.6532 26.8301 21.2503 27 20.89C27.09 20.69 27.17 20.49 27.25 20.28C27.3878 19.921 27.6261 19.6093 27.9365 19.3823C28.2469 19.1553 28.6161 19.0225 29 19C29.5304 19 30.0391 18.7893 30.4142 18.4142C30.7893 18.0391 31 17.5304 31 17V15C31 14.4696 30.7893 13.9609 30.4142 13.5858C30.0391 13.2107 29.5304 13 29 13C28.6023 12.9928 28.2157 12.8672 27.8897 12.6392C27.5637 12.4112 27.3131 12.0912 27.17 11.72C27.09 11.51 27.01 11.31 26.92 11.11C26.7565 10.7449 26.7063 10.3391 26.7758 9.94514C26.8453 9.55118 27.0314 9.18712 27.31 8.9C27.6705 8.52707 27.872 8.02868 27.872 7.51C27.872 6.99132 27.6705 6.49293 27.31 6.12L25.88 4.66C25.5071 4.29952 25.0087 4.09802 24.49 4.09802C23.9713 4.09802 23.4729 4.29952 23.1 4.66V4.66C22.8129 4.93858 22.4488 5.12465 22.0549 5.19418C21.6609 5.2637 21.2551 5.21348 20.89 5.05L20.28 4.8C19.9135 4.65881 19.5966 4.41282 19.369 4.09272C19.1414 3.77261 19.013 3.39257 19 3V3C19 2.46957 18.7893 1.96086 18.4142 1.58579C18.0391 1.21071 17.5304 1 17 1H15C14.4696 1 13.9609 1.21071 13.5858 1.58579C13.2107 1.96086 13 2.46957 13 3V3C12.987 3.39257 12.8586 3.77261 12.631 4.09272C12.4034 4.41282 12.0865 4.65881 11.72 4.8L11.11 5.05C10.7449 5.21348 10.3391 5.2637 9.94514 5.19418C9.55118 5.12465 9.18712 4.93858 8.9 4.66C8.52707 4.29952 8.02868 4.09802 7.51 4.09802C6.99132 4.09802 6.49293 4.29952 6.12 4.66L4.66 6.12C4.29952 6.49293 4.09802 6.99132 4.09802 7.51C4.09802 8.02868 4.29952 8.52707 4.66 8.9C4.93858 9.18712 5.12465 9.55118 5.19418 9.94514C5.2637 10.3391 5.21348 10.7449 5.05 11.11C4.96 11.31 4.88 11.51 4.8 11.72C4.65881 12.0865 4.41282 12.4034 4.09272 12.631C3.77261 12.8586 3.39257 12.987 3 13C2.46957 13 1.96086 13.2107 1.58579 13.5858C1.21071 13.9609 1 14.4696 1 15V17C1 17.5304 1.21071 18.0391 1.58579 18.4142C1.96086 18.7893 2.46957 19 3 19C3.39257 19.013 3.77261 19.1414 4.09272 19.369C4.41282 19.5966 4.65881 19.9135 4.8 20.28C4.88 20.49 4.96 20.69 5.05 20.89C5.21348 21.2551 5.2637 21.6609 5.19418 22.0549C5.12465 22.4488 4.93858 22.8129 4.66 23.1V23.1C4.29952 23.4729 4.09802 23.9713 4.09802 24.49C4.09802 25.0087 4.29952 25.5071 4.66 25.88L6.12 27.34C6.49293 27.7005 6.99132 27.902 7.51 27.902C8.02868 27.902 8.52707 27.7005 8.9 27.34V27.34C9.19262 27.0697 9.5593 26.8929 9.95305 26.8323C10.3468 26.7717 10.7497 26.8301 11.11 27L11.72 27.25C12.079 27.3878 12.3907 27.6261 12.6177 27.9365C12.8447 28.2469 12.9775 28.6161 13 29C13 29.5304 13.2107 30.0391 13.5858 30.4142C13.9609 30.7893 14.4696 31 15 31H17C17.5304 31 18.0391 30.7893 18.4142 30.4142C18.7893 30.0391 19 29.5304 19 29C19.0072 28.6023 19.1328 28.2157 19.3608 27.8897C19.5888 27.5637 19.9088 27.3131 20.28 27.17L20.89 26.92" stroke="#00286B" stroke-width="2" stroke-linecap="round" stroke-linejoin="round"/>
<path d="M16 24C20.4183 24 24 20.4183 24 16C24 11.5817 20.4183 8 16 8C11.5817 8 8 11.5817 8 16C8 20.4183 11.5817 24 16 24Z" stroke="white" stroke-width="2" stroke-linecap="round" stroke-linejoin="round"/>
<path d="M16 24C17.6569 24 19 20.4183 19 16C19 11.5817 17.6569 8 16 8C14.3431 8 13 11.5817 13 16C13 20.4183 14.3431 24 16 24Z" stroke="white" stroke-width="2" stroke-linecap="round" stroke-linejoin="round"/>
<path d="M8 16H24" stroke="white" stroke-width="2" stroke-linecap="round" stroke-linejoin="round"/>
</svg>
