<svg width="33" height="32" viewBox="0 0 33 32" fill="none" xmlns="http://www.w3.org/2000/svg">
<path d="M11.0139 30.42C9.07017 29.8427 7.27507 28.8501 5.75273 27.5108C4.23038 26.1715 3.01712 24.5175 2.19684 22.6633C1.37655 20.809 0.96882 18.7987 1.00186 16.7713C1.0349 14.744 1.50791 12.748 2.38818 10.9215C3.26845 9.09491 4.53498 7.48135 6.10016 6.19239C7.66533 4.90343 9.49181 3.96983 11.4533 3.45616C13.4147 2.94249 15.4644 2.86101 17.4604 3.21735C19.4565 3.57368 21.3513 4.35934 23.0139 5.51998" stroke="#3AC4FF" stroke-width="2" stroke-linecap="round" stroke-linejoin="round"/>
<path d="M26.4937 9C27.955 11.0986 28.8135 13.5574 28.9762 16.1095C29.1389 18.6616 28.5994 21.2095 27.4163 23.4767C26.2333 25.7439 24.4518 27.6437 22.2654 28.97C20.0789 30.2963 17.5709 30.9983 15.0137 31" stroke="#3AC4FF" stroke-width="2" stroke-linecap="round" stroke-linejoin="round"/>
<path d="M15.0137 26C19.9842 26 24.0137 21.9706 24.0137 17C24.0137 12.0294 19.9842 8 15.0137 8C10.0431 8 6.01367 12.0294 6.01367 17C6.01367 21.9706 10.0431 26 15.0137 26Z" stroke="#3AC4FF" stroke-width="2" stroke-linecap="round" stroke-linejoin="round"/>
<path d="M15.0137 21C17.2228 21 19.0137 19.2091 19.0137 17C19.0137 14.7909 17.2228 13 15.0137 13C12.8045 13 11.0137 14.7909 11.0137 17C11.0137 19.2091 12.8045 21 15.0137 21Z" stroke="#3AC4FF" stroke-width="2" stroke-linecap="round" stroke-linejoin="round"/>
<path d="M15.0137 17L30.0137 2" stroke="#00286B" stroke-width="2" stroke-linecap="round" stroke-linejoin="round"/>
<path d="M23.0137 9V4L26.0137 1L27.0137 5L31.0137 6L28.0137 9H23.0137Z" stroke="#00286B" stroke-width="2" stroke-linecap="round" stroke-linejoin="round"/>
</svg>
