<svg width="12" height="12" viewBox="0 0 12 12" fill="none" xmlns="http://www.w3.org/2000/svg">
<path d="M8.30352 0.714195L0.771015 8.55599C0.395893 8.94651 0.395893 9.57967 0.771015 9.9702L1.78305 11.0238C2.15818 11.4143 2.76637 11.4143 3.14149 11.0238L10.674 3.182C11.0491 2.79148 11.0491 2.15831 10.674 1.76779L9.66196 0.714195C9.28684 0.323671 8.67865 0.323671 8.30352 0.714195Z" fill="#C00101"/>
<path d="M1.78304 0.714195L0.771015 1.76778C0.395893 2.1583 0.395893 2.79147 0.771015 3.18199L8.30354 11.0238C8.67867 11.4143 9.28686 11.4143 9.66198 11.0238L10.674 9.97022C11.0491 9.5797 11.0491 8.94653 10.674 8.55601L3.14148 0.714195C2.76636 0.323671 2.15817 0.323671 1.78304 0.714195Z" fill="#C00101"/>
</svg>
